<svg width="1280" height="360" viewBox="0 0 1280 360" fill="none" xmlns="http://www.w3.org/2000/svg">
  <defs>
    <linearGradient id="surface" x1="24" y1="0" x2="1220" y2="360" gradientUnits="userSpaceOnUse">
      <stop stop-color="#082433"/>
      <stop offset="0.52" stop-color="#103A4C"/>
      <stop offset="1" stop-color="#071822"/>
    </linearGradient>
    <linearGradient id="type" x1="130" y1="128" x2="800" y2="260" gradientUnits="userSpaceOnUse">
      <stop stop-color="#8EEBFA"/>
      <stop offset="0.48" stop-color="#D5B4FF"/>
      <stop offset="1" stop-color="#FFD69B"/>
    </linearGradient>
    <filter id="blur"><feGaussianBlur stdDeviation="42"/></filter>
  </defs>
  <style>@import url('https://fonts.googleapis.com/css2?family=DM+Mono:wght@400;500&amp;family=Manrope:wght@500;800&amp;display=swap');</style>
  <rect width="1280" height="360" fill="url(#surface)"/>
  <path d="M0 272C163 203 230 330 428 255C620 182 702 298 899 230C1042 181 1139 169 1280 91V360H0V272Z" fill="#071923" fill-opacity="0.58"/>
  <circle cx="1128" cy="55" r="84" fill="#76DFF1" fill-opacity="0.22" filter="url(#blur)"/>
  <circle cx="122" cy="320" r="94" fill="#BDA0F8" fill-opacity="0.14" filter="url(#blur)"/>
  <g opacity="0.75" fill="#BCEFFA">
    <circle cx="100" cy="72" r="1.5"/><circle cx="202" cy="63" r="1"/><circle cx="821" cy="70" r="1.5"/><circle cx="957" cy="117" r="1"/><circle cx="1114" cy="163" r="1.5"/><circle cx="1190" cy="91" r="1"/><circle cx="1038" cy="239" r="1"/><circle cx="673" cy="58" r="1"/>
  </g>
  <text x="94" y="106" fill="#8EEBFA" font-family="DM Mono, monospace" font-size="15" letter-spacing="5">DRJ / FRONTEND DEVELOPER</text>
  <text x="90" y="201" fill="url(#type)" font-family="Manrope, Arial, sans-serif" font-size="78" font-weight="800">DIRGH RAJ</text>
  <text x="96" y="253" fill="#D8E9EE" font-family="Manrope, Arial, sans-serif" font-size="24">Clear interfaces. Curious mind. Open web.</text>
  <rect x="94" y="288" width="236" height="34" rx="5" fill="#B9EEF8" fill-opacity="0.12" stroke="#B9EEF8" stroke-opacity="0.42"/>
  <text x="112" y="311" fill="#CFEFF5" font-family="DM Mono, monospace" font-size="13" letter-spacing="1.8">MADHESH, NEPAL</text>
</svg>
